<?xml version="1.0" encoding="utf-8"?>
<!-- Generator: Adobe Illustrator 21.0.2, SVG Export Plug-In . SVG Version: 6.00 Build 0)  -->
<svg version="1.1" id="Layer_1" xmlns="http://www.w3.org/2000/svg" xmlns:xlink="http://www.w3.org/1999/xlink" x="0px" y="0px"
	 viewBox="0 0 28.3 28.3" style="enable-background:new 0 0 28.3 28.3;" xml:space="preserve">
<style type="text/css">
	.st0{fill-rule:evenodd;clip-rule:evenodd;fill:#1ABC9C;}
</style>
<path class="st0" d="M17.5,13.9c0.3,0.9-1,2-0.6,3c0.3,0.7,1.3,0.8,1.8,0.3c0.5-0.6-0.1-1.7-0.6-2.1C17.7,14.6,17.8,14.3,17.5,13.9z
	 M12.6,19.3C11.1,19,9.4,19,8.2,20.1c0,0-0.1,0.1-0.1,0.1c0,0,0,0.1,0,0.1c0,0.7,0.1,1.3,0.1,1.9c0,0.9,5.8,0.8,5.8-0.1
	c0-0.1,0-0.3,0-0.5c0.2,0.1,0.7,0.1,0.9,0c0,0.2,0,0.4,0,0.5c0,0.9,5.8,1,5.8,0.1c0-0.6,0-1.3,0-1.9c0,0,0-0.1,0-0.1
	c0-0.1,0-0.1-0.1-0.1c-1.2-1.1-2.9-1.1-4.4-0.8c-0.4,0.1-1.4,0.4-1.4,0.9c-0.2,0-0.5,0-0.7,0l0,0C14,19.7,13,19.4,12.6,19.3z
	 M2.5,9.7c3,2.6,7.1,5.8,9.3,3c0.3-0.4,0.6-0.6,1-0.7l0.1,0l0.1,0l0,0H13l0.1-0.1l0.1,0.1c0,0,0,0,0.1-0.1l0.1,0l0.1,0.1l0.1,0
	l0.2,0.1l0,0l0.1,0l0.1,0.1l0.1,0l0.1,0l0.1,0.2l0.1,0l0,0l0.1,0l0.1,0.1l0.1,0l0.2,0.2c1.1,0.9,0.9-0.4,1.7-0.3
	c0.2,0,0.9,0.6,1,0.6c0.3-0.1-0.5-0.9-0.6-1c-0.2-0.3,0.3-0.9,0.3-1.3c0-0.2-0.3-0.5-0.5-0.8l-0.1-0.1l-0.1,0l0-0.1l-0.1,0l-0.1,0
	l0-0.1l-0.1,0l0,0H16l0-0.2h-0.1l-0.1,0l0-0.2l-0.1,0h-0.1l0-0.2l-0.1,0l-0.1,0l0-0.2l-0.1,0l0,0l-0.1-0.1l0.1-0.1l-0.1-0.1
	c-0.1-0.7,1-1.7,1.3-2.5c0.3-1-1.2-2.6-3.2-4.2c0.3,0,0.5,0,0.8,0c6.9,0,12.5,5.6,12.5,12.5S21,26.6,14.1,26.6S1.7,21,1.7,14.1
	C1.7,12.6,2,11.1,2.5,9.7z M0,14.1c0,7.8,6.3,14.1,14.1,14.1s14.1-6.3,14.1-14.1S21.9,0,14.1,0S0,6.3,0,14.1z"/>
</svg>
