<?xml version="1.0" encoding="utf-8"?>
<!-- Generator: Adobe Illustrator 21.0.2, SVG Export Plug-In . SVG Version: 6.00 Build 0)  -->
<svg version="1.1" id="Layer_1" xmlns="http://www.w3.org/2000/svg" xmlns:xlink="http://www.w3.org/1999/xlink" x="0px" y="0px"
	 viewBox="0 0 37.5 29" style="enable-background:new 0 0 37.5 29;" xml:space="preserve">
<style type="text/css">
	.st0{fill-rule:evenodd;clip-rule:evenodd;fill:#788C8D;}
</style>
<path class="st0" d="M25.5,21.9l-8,4.9C17.2,27,16.9,27,16.7,27H2.8v-5h1.6c0.4,0,0.7-0.3,0.8-0.6c0.2-1.1,1.3-2.3,3.6-2.3h3.1
	l2.7-1.6c0.7-0.3,1.6-0.4,2.2-0.1c0.3,0.1,0.6,0.3,0.8,0.7l0,0.1c0,0,0.2,0.3,0,0.4L12,22.3h-0.2v1H18l4.5-2.4c1-0.5,2-0.4,2.6,0.1
	C25.3,21,25.5,21.4,25.5,21.9z M25.6,20.1c-0.9-0.7-2.4-0.8-3.6-0.1l-4.3,2.3h-3.9l4.4-2.9l0,0c0.7-0.5,0.5-1.3,0.2-1.7
	c-0.2-0.6-0.7-1-1.3-1.2c-0.9-0.4-2.1-0.3-3,0.2l-2.5,1.5H8.7c-2.8,0-4.2,1.5-4.6,2.9H2.8v-0.7c0-0.2-0.2-0.4-0.4-0.4H0.4
	c-0.2,0-0.4,0.2-0.4,0.4v8.2C0,28.8,0.2,29,0.4,29h1.9c0.2,0,0.4-0.2,0.4-0.4V28h13.9c0.5,0,0.9-0.1,1.3-0.4l8.4-5.2l0.1-0.2
	C26.6,21.4,26.3,20.6,25.6,20.1z M8,10.2c-0.4,0-0.8-0.4-0.8-0.8c0-0.4,0.4-0.8,0.8-0.8c0.4,0,0.8,0.3,0.8,0.8
	C8.8,9.8,8.5,10.2,8,10.2z M12.6,5.2H7.1c0,0.1,0,0.2,0,0.2c0,0.7-0.5,1.2-1.2,1.2H5.9v5.7l0.1,0c0.6,0,1.2,0.5,1.2,1.2l0,0h5.2
	c-1.3-0.9-2.2-2.4-2.2-4C10.1,7.6,11.1,6,12.6,5.2z M12.9,9.2c0,1.3,1,2.3,2.3,2.3c1.3,0,2.3-1,2.3-2.3c0-1.3-1-2.3-2.3-2.3
	C13.9,6.9,12.9,7.9,12.9,9.2z M34.7,10.1h-1.5c-0.3,0.2-1,0.5-2.3,0.7c-0.2,0-0.5,0-0.7,0c-0.9,0-2-0.2-2.9-0.7L27.1,10h-6.4
	c-1,0-1.5-0.7-1.5-1.5c0-0.9,0.5-1.6,1.5-1.6h4.4c0-0.3,0.1-0.6,0.1-0.9c0-1.7-1.2-2.8-2.4-2.8c-1.3,0-3.8,0-3.8,0l4.4-2.1
	c0,0,0.6-0.3,1.4-0.3c0.4,0,0.8,0.1,1.3,0.3C28.6,2.3,33,4.3,33,4.4h1.7V10.1z M25.1,14.3H4.9V4.1h15h3c1.3,0,1.5,1.7,1.5,1.9h-1.3
	c-0.1-0.2-0.2-0.4-0.2-0.7c0-0.1,0-0.2,0-0.2h-5.5C18,5.5,18.6,6,19,6.6c-0.1,0.1-0.1,0.1-0.2,0.2c-0.4,0.4-0.6,1-0.6,1.7
	c0,0.7,0.2,1.2,0.6,1.7c0.3,0.3,0.6,0.5,0.9,0.6c-0.3,1.1-1,2.1-2,2.7h5.2v0c0-0.6,0.5-1.2,1.2-1.2l0.1,0v-1.3h1V14.3z M37.4,2.8
	c-0.1-0.1-0.2-0.1-0.3-0.1H35c-0.1,0-0.2,0-0.3,0.1c-0.1,0.1-0.1,0.2-0.1,0.3v0.6h-1.1c-0.7-0.4-3-1.5-7.1-3.3
	C25.9,0.1,25.3,0,24.9,0c-1,0-1.7,0.3-1.8,0.3c0,0-6,2.8-6.2,2.9l-13.1,0v12.1h22.3v-4.5h0.8c1.1,0.5,2.2,0.8,3.3,0.8
	c0.3,0,0.6,0,0.8-0.1c1.5-0.2,2.3-0.6,2.7-0.8h1v0.6c0,0.1,0,0.2,0.1,0.3c0.1,0.1,0.2,0.1,0.3,0.1h2.1c0.1,0,0.2,0,0.3-0.1
	c0.1-0.1,0.1-0.2,0.1-0.3V3C37.5,2.9,37.5,2.8,37.4,2.8z"/>
</svg>
