<?xml version="1.0" encoding="utf-8"?>
<!-- Generator: Adobe Illustrator 21.0.2, SVG Export Plug-In . SVG Version: 6.00 Build 0)  -->
<svg version="1.1" id="Layer_1" xmlns="http://www.w3.org/2000/svg" xmlns:xlink="http://www.w3.org/1999/xlink" x="0px" y="0px"
	 viewBox="0 0 34.1 20.7" style="enable-background:new 0 0 34.1 20.7;" xml:space="preserve">
<style type="text/css">
	.st0{fill-rule:evenodd;clip-rule:evenodd;fill:#9B59B6;}
</style>
<path class="st0" d="M8.8,1.2h2.8c0.3,0,0.6-0.3,0.6-0.6S11.9,0,11.6,0H8.8C8.4,0,8.2,0.3,8.2,0.6S8.4,1.2,8.8,1.2z M32.8,15.7
	c0,0.3-0.3,0.6-0.6,0.6h-1.8c-0.5-0.9-1.5-1.5-2.6-1.5c-1.1,0-2.1,0.6-2.6,1.5h-0.3V5.3h4.2c0.2,0,0.4,0.1,0.5,0.3l3,4.8
	c0.1,0.1,0.1,0.2,0.1,0.3L32.8,15.7L32.8,15.7z M27.8,19.6c-1,0-1.8-0.8-1.8-1.8c0-1,0.8-1.8,1.8-1.8c1,0,1.8,0.8,1.8,1.8
	C29.6,18.8,28.8,19.6,27.8,19.6z M9.2,19.6c-1,0-1.8-0.8-1.8-1.8c0-1,0.8-1.8,1.8-1.8c0.7,0,1.3,0.4,1.6,1c0,0.1,0,0.2,0.1,0.3
	c0,0.2,0.1,0.4,0.1,0.5C11,18.8,10.2,19.6,9.2,19.6z M33.7,9.7l-3.1-4.8c-0.3-0.5-0.9-0.8-1.5-0.8h-4.3V1.8C24.9,0.8,24,0,23,0h-9
	c-0.3,0-0.6,0.3-0.6,0.6s0.3,0.6,0.6,0.6h9c0.3,0,0.6,0.3,0.6,0.6v14.4H11.8c-0.5-0.9-1.5-1.5-2.6-1.5c-1.1,0-2.1,0.6-2.6,1.5H5.1
	c-0.3,0-0.6-0.3-0.6-0.6v-2.1c0-0.3-0.3-0.6-0.6-0.6c-0.3,0-0.6,0.3-0.6,0.6v2.1c0,1,0.8,1.8,1.8,1.8h1.1v0.3c0,1.6,1.4,3,3,3
	s3-1.4,3-3v-0.3h12.1h0h0h0.5v0.3c0,1.6,1.4,3,3,3c1.6,0,3-1.4,3-3v-0.3h1.4c1,0,1.8-0.8,1.8-1.8v-4.9C34,10.4,33.9,10.1,33.7,9.7z
	 M1.6,3.5H14c0.3,0,0.6-0.3,0.6-0.6S14.3,2.3,14,2.3H1.6C1.3,2.3,1,2.6,1,2.9S1.3,3.5,1.6,3.5z M4.8,9.8c0,0.3,0.3,0.6,0.6,0.6h12.3
	c0.3,0,0.6-0.3,0.6-0.6c0-0.3-0.3-0.6-0.6-0.6H5.4C5.1,9.2,4.8,9.4,4.8,9.8z M3.5,9.8c0-0.3-0.3-0.6-0.6-0.6H0.6
	C0.3,9.2,0,9.4,0,9.8c0,0.3,0.3,0.6,0.6,0.6h2.3C3.2,10.4,3.5,10.1,3.5,9.8z M12.8,7.1c0.3,0,0.6-0.3,0.6-0.6c0-0.3-0.3-0.6-0.6-0.6
	H6.5c-0.3,0-0.6,0.3-0.6,0.6c0,0.3,0.3,0.6,0.6,0.6H12.8z"/>
</svg>
