<?xml version="1.0" encoding="utf-8"?>
<!-- Generator: Adobe Illustrator 21.0.2, SVG Export Plug-In . SVG Version: 6.00 Build 0)  -->
<svg version="1.1" id="Layer_1" xmlns="http://www.w3.org/2000/svg" xmlns:xlink="http://www.w3.org/1999/xlink" x="0px" y="0px"
	 viewBox="0 0 32.2 20.5" style="enable-background:new 0 0 32.2 20.5;" xml:space="preserve">
<style type="text/css">
	.st0{fill-rule:evenodd;clip-rule:evenodd;fill:#F39C12;}
</style>
<g>
	<path class="st0" d="M23.9,9.7L24,9.3l0,0v4.3h-2.3L23.9,9.7z M26,6.7h-2l-4.1,6.8l0.1,1.2h4.1v2h2v-2h1.1v-1H26V6.7z"/>
</g>
<path class="st0" d="M30.2,3.4c0.3,0,0.9,0.4,0.9,0.7v14.5c-0.1,0.3-0.5,0.8-0.8,0.8H5.2c-0.3,0-0.8-0.5-0.8-0.8V4.2
	c0-0.3,0.5-0.8,0.8-0.7H30.2z M30.2,2.4c0.8-0.1,2,0.9,2,1.8v14.5c0,0.9-1,1.9-1.9,1.9H5.2c-0.8,0-1.8-1.1-1.8-1.8V4.2
	c0-0.9,1.2-1.8,1.9-1.8H30.2z"/>
<path class="st0" d="M7.5,9.1c0-1.3,1.1-2.4,2.4-2.4c1.3,0,2.4,1.1,2.4,2.4c0,1.3-1.1,2.4-2.4,2.4C8.6,11.5,7.5,10.4,7.5,9.1z"/>
<path class="st0" d="M1.8,0C0.8,0,0,0.8,0,1.8v12.5c0,1,0.8,1.8,1.8,1.8h1.8V5.3c0-1,0.8-1.8,1.8-1.8h21.4V1.8c0-1-0.8-1.8-1.8-1.8
	H1.8z"/>
<path class="st0" d="M12,9.1c0-1.3,1.1-2.4,2.4-2.4c1.3,0,2.4,1.1,2.4,2.4c0,1.3-1.1,2.4-2.4,2.4C13.1,11.5,12,10.4,12,9.1z"/>
<rect x="6.5" y="15.2" class="st0" width="2" height="2"/>
<rect x="9.5" y="15.2" class="st0" width="2" height="2"/>
<rect x="12.5" y="15.2" class="st0" width="2" height="2"/>
<rect x="15.5" y="15.2" class="st0" width="2" height="2"/>
</svg>
