<?xml version="1.0" encoding="utf-8"?>
<!-- Generator: Adobe Illustrator 16.0.0, SVG Export Plug-In . SVG Version: 6.00 Build 0)  -->
<!DOCTYPE svg PUBLIC "-//W3C//DTD SVG 1.1//EN" "http://www.w3.org/Graphics/SVG/1.1/DTD/svg11.dtd">
<svg version="1.1" id="Layer_1" xmlns="http://www.w3.org/2000/svg" xmlns:xlink="http://www.w3.org/1999/xlink" x="0px" y="0px"
	 width="224px" height="44px" viewBox="0 0 224 44" enable-background="new 0 0 224 44" preserveAspectRatio="xMidYMid">
<g>
	<g>
		<g>
			<path fill="#FF6600" d="M7.902,25.22c-0.193,0.13-0.821,0.414-1.164,0.468c-0.344,0.054-0.666,0.081-0.966,0.081
				c-0.472,0-0.978-0.087-1.519-0.258c-0.541-0.172-1.042-0.435-1.503-0.788c-0.46-0.354-0.844-0.795-1.151-1.32
				c-0.307-0.524-0.46-1.131-0.46-1.818V3.564l2.96-0.9v18.534c0,0.366,0.064,0.682,0.193,0.949c0.129,0.269,0.29,0.489,0.483,0.66
				c0.193,0.172,0.408,0.295,0.644,0.37c0.236,0.076,0.471,0.113,0.708,0.113c0.256,0,0.536-0.069,0.836-0.208" shape-rendering="geometric-precision"/>
			<path fill="#FF6600" d="M12.529,18.245c-0.063,0.734,0.028,1.413,0.275,2.038c0.246,0.625,0.594,1.165,1.045,1.618
				c0.45,0.452,0.992,0.808,1.625,1.067c0.632,0.258,1.304,0.388,2.011,0.388c0.815,0,1.572-0.151,2.269-0.452
				c0.697-0.299,1.42-0.739,2.172-1.319l1.318,2.177c-0.879,0.67-1.813,1.193-2.798,1.57c-0.987,0.376-2.05,0.564-3.187,0.564
				c-1.158,0-2.209-0.199-3.153-0.596s-1.752-0.954-2.425-1.674c-0.673-0.717-1.193-1.57-1.561-2.557
				c-0.368-0.986-0.551-2.06-0.551-3.219c0-1.114,0.173-2.144,0.519-3.088c0.347-0.944,0.83-1.759,1.449-2.446
				c0.62-0.685,1.369-1.216,2.248-1.593c0.878-0.374,1.854-0.563,2.927-0.563c0.793,0,1.598,0.151,2.414,0.452
				c0.815,0.303,1.545,0.781,2.188,1.44c0.644,0.657,1.168,1.499,1.577,2.522c0.407,1.024,0.611,2.248,0.611,3.669H12.529z
				 M19.029,13.589c-0.601-0.59-1.384-0.885-2.349-0.885c-0.966,0-1.786,0.295-2.462,0.885c-0.675,0.59-1.131,1.388-1.368,2.397
				h7.401C20.037,14.977,19.629,14.179,19.029,13.589z" shape-rendering="geometric-precision"/>
			<path fill="#FF6600" d="M37.403,25.543v-8.56c0-1.373-0.317-2.429-0.949-3.168c-0.633-0.741-1.464-1.11-2.494-1.11
				c-0.858,0-1.608,0.075-2.251,0.225c-0.645,0.149-1.181,0.354-1.61,0.611v12.002h-2.896V9.969l2.22,1.156v-0.063
				c1.373-0.6,2.971-0.899,4.793-0.899c1.824,0,3.289,0.519,4.393,1.557c1.104,1.039,1.657,2.618,1.657,4.736v9.087H37.403z" shape-rendering="geometric-precision"/>
			<path fill="#FF6600" d="M55.432,23.13c-0.358,0.6-0.84,1.104-1.447,1.512s-1.292,0.713-2.054,0.918
				c-0.762,0.203-1.561,0.306-2.397,0.306c-1.909,0-3.808-0.536-5.695-1.609l1.093-2.253c0.987,0.43,1.851,0.756,2.591,0.981
				c0.74,0.226,1.485,0.338,2.236,0.338c0.407,0,0.804-0.052,1.19-0.16c0.386-0.107,0.735-0.259,1.045-0.45
				c0.311-0.193,0.558-0.436,0.74-0.725c0.182-0.291,0.273-0.617,0.273-0.983c0-0.45-0.225-0.793-0.675-1.028
				c-0.451-0.237-1.014-0.435-1.69-0.596c-0.675-0.161-1.404-0.326-2.188-0.499c-0.784-0.171-1.513-0.418-2.188-0.739
				c-0.676-0.322-1.239-0.751-1.689-1.287c-0.451-0.536-0.676-1.255-0.676-2.157c0-0.622,0.168-1.207,0.504-1.752
				c0.335-0.547,0.786-1.03,1.35-1.448c0.564-0.418,1.216-0.746,1.957-0.982c0.741-0.235,1.519-0.353,2.334-0.353
				c0.837,0,1.721,0.107,2.654,0.321c0.934,0.215,1.775,0.569,2.526,1.062l-1.287,2.252c-0.687-0.45-1.357-0.744-2.011-0.885
				c-0.655-0.14-1.324-0.208-2.011-0.208c-0.387,0-0.768,0.048-1.143,0.145c-0.375,0.097-0.703,0.236-0.981,0.418
				c-0.279,0.184-0.504,0.386-0.676,0.611c-0.172,0.226-0.258,0.467-0.258,0.725c0,0.494,0.227,0.863,0.677,1.11
				c0.45,0.247,1.014,0.45,1.689,0.611c0.675,0.16,1.405,0.326,2.188,0.499c0.783,0.171,1.512,0.413,2.188,0.722
				c0.676,0.313,1.238,0.741,1.689,1.289c0.45,0.546,0.675,1.282,0.675,2.204C55.969,21.832,55.79,22.529,55.432,23.13z" shape-rendering="geometric-precision"/>
			<path d="M78.333,25.543v-8.528c0-0.6-0.049-1.163-0.146-1.688c-0.096-0.526-0.257-0.976-0.482-1.353
				c-0.225-0.375-0.525-0.668-0.901-0.884c-0.375-0.215-0.853-0.322-1.432-0.322c-0.815,0-1.523,0.129-2.124,0.386
				c-0.601,0.257-1.158,0.611-1.673,1.062c0.021,0.107,0.07,0.359,0.145,0.756c0.075,0.398,0.113,0.788,0.113,1.174v9.396h-2.864
				v-8.538c0-1.519-0.247-2.611-0.74-3.274c-0.493-0.662-1.244-0.995-2.252-0.995c-0.859,0-1.54,0.097-2.043,0.289
				c-0.505,0.193-0.993,0.438-1.464,0.738v11.78h-2.864V9.937l2.188,1.219c0.536-0.255,1.143-0.48,1.818-0.673
				c0.676-0.193,1.464-0.289,2.366-0.289c1.223,0,2.161,0.171,2.815,0.514c0.654,0.344,1.164,0.73,1.528,1.159
				c0.773-0.472,1.572-0.869,2.398-1.191c0.826-0.321,1.839-0.482,3.041-0.482c1.866,0,3.239,0.557,4.119,1.67
				c0.88,1.112,1.321,2.591,1.321,4.432v9.248H78.333z" shape-rendering="geometric-precision"/>
			<path d="M94.035,25.35c-0.214,0.043-0.503,0.097-0.869,0.161c-0.365,0.063-0.762,0.117-1.191,0.161
				c-0.429,0.043-0.863,0.081-1.303,0.112c-0.44,0.032-0.843,0.047-1.206,0.047c-0.623,0-1.208-0.139-1.754-0.418
				c-0.546-0.276-1.025-0.644-1.432-1.094s-0.729-0.954-0.965-1.512c-0.236-0.557-0.354-1.115-0.354-1.673
				c0-1.116,0.246-2.027,0.74-2.735c0.493-0.707,1.136-1.254,1.93-1.641c0.794-0.386,1.7-0.644,2.719-0.771
				c1.019-0.129,2.065-0.183,3.137-0.161v-1.159c0-0.686-0.208-1.216-0.627-1.593c-0.418-0.375-1.025-0.563-1.818-0.563
				c-0.687,0-1.427,0.107-2.221,0.322c-0.794,0.214-1.555,0.578-2.284,1.094l-1.159-2.317c1.029-0.623,2.064-1.029,3.104-1.223
				c1.041-0.193,2.022-0.291,2.945-0.291c0.493,0,1.024,0.06,1.592,0.178c0.569,0.118,1.1,0.338,1.594,0.659
				c0.493,0.323,0.905,0.757,1.238,1.304c0.333,0.548,0.499,1.25,0.499,2.108v11.809L94.035,25.35z M93.488,18.206
				c-0.725-0.02-1.424,0-2.096,0.064c-0.672,0.065-1.264,0.205-1.776,0.418c-0.512,0.215-0.922,0.521-1.231,0.917
				c-0.309,0.398-0.464,0.907-0.464,1.529c0,0.644,0.196,1.186,0.591,1.625c0.395,0.44,0.891,0.66,1.488,0.66
				c0.277,0,0.586-0.017,0.928-0.049c0.341-0.032,0.672-0.073,0.992-0.127c0.319-0.054,0.619-0.113,0.896-0.179
				c0.277-0.063,0.491-0.139,0.64-0.225L93.488,18.206z" shape-rendering="geometric-precision"/>
			<path d="M109.126,13.604c-0.687-0.58-1.437-0.869-2.253-0.869c-0.558,0-1.143,0.134-1.753,0.402
				c-0.612,0.269-1.122,0.811-1.529,1.626v10.779h-2.864V10.162l2.059,1.287h0.097c0.472-0.386,1.079-0.729,1.818-1.03
				c0.74-0.3,1.506-0.45,2.301-0.45c0.815,0,1.512,0.091,2.091,0.274c0.58,0.182,1.083,0.445,1.513,0.788L109.126,13.604z" shape-rendering="geometric-precision"/>
			<path d="M123.767,25.865l-8.302-6.854v6.563h-2.864V3.501l2.864-0.773v13.547l7.272-6.179l1.641,2.157l-6.468,5.373l7.755,6.34
				L123.767,25.865z"/>
			<path d="M130.62,18.245c-0.063,0.734,0.028,1.413,0.275,2.038c0.245,0.625,0.594,1.165,1.044,1.618
				c0.451,0.452,0.992,0.808,1.626,1.067c0.633,0.258,1.303,0.388,2.011,0.388c0.814,0,1.572-0.151,2.269-0.452
				c0.696-0.299,1.42-0.739,2.172-1.319l1.319,2.177c-0.881,0.67-1.813,1.193-2.8,1.57c-0.986,0.376-2.049,0.564-3.186,0.564
				c-1.157,0-2.21-0.199-3.152-0.596c-0.945-0.396-1.753-0.954-2.426-1.674c-0.674-0.717-1.194-1.57-1.561-2.557
				c-0.368-0.986-0.552-2.06-0.552-3.219c0-1.114,0.173-2.144,0.52-3.088c0.346-0.944,0.83-1.759,1.449-2.446
				c0.619-0.685,1.368-1.216,2.246-1.593c0.881-0.374,1.855-0.563,2.93-0.563c0.792,0,1.598,0.151,2.412,0.452
				c0.815,0.303,1.544,0.781,2.188,1.44c0.645,0.657,1.169,1.499,1.577,2.522c0.406,1.024,0.61,2.248,0.61,3.669H130.62z
				 M137.121,13.589c-0.601-0.59-1.384-0.885-2.351-0.885c-0.965,0-1.785,0.295-2.46,0.885c-0.676,0.59-1.132,1.388-1.368,2.397
				h7.401C138.129,14.977,137.721,14.179,137.121,13.589z" shape-rendering="geometric-precision"/>
			<path d="M152.083,25.566c-0.751,0.198-1.373,0.299-1.866,0.299c-0.473,0-0.938-0.07-1.4-0.21s-0.88-0.353-1.255-0.642
				s-0.675-0.657-0.901-1.107c-0.225-0.449-0.337-0.994-0.337-1.636V12.069h-2.671v-2.38h2.671v-5.26l2.863-1.609v6.87h3.927v2.38
				h-3.927v8.542c0,0.495,0.006,0.915,0.018,1.26c0.009,0.344,0.059,0.623,0.144,0.838c0.086,0.215,0.226,0.372,0.419,0.468
				c0.192,0.098,0.461,0.146,0.805,0.146c0.406,0,0.777-0.052,1.109-0.16c0.333-0.107,0.735-0.279,1.207-0.516l1.126,2.182
				C153.478,25.123,152.834,25.368,152.083,25.566z" shape-rendering="geometric-precision"/>
			<path d="M174.848,25.567c-1.062,0.219-1.968,0.329-2.719,0.329c-1.202,0-2.295-0.188-3.281-0.563
				c-0.987-0.376-1.828-0.902-2.523-1.577c-0.693-0.675-1.23-1.485-1.608-2.43c-0.379-0.944-0.566-1.984-0.566-3.121
				c0-1.179,0.193-2.263,0.582-3.249c0.389-0.988,0.931-1.835,1.625-2.542c0.695-0.709,1.53-1.26,2.507-1.658
				c0.977-0.396,2.032-0.595,3.169-0.595c0.709,0,1.562,0.125,2.559,0.375c0.997,0.249,1.968,0.591,2.912,1.025l-1.159,2.366
				c-0.536-0.215-1.002-0.387-1.398-0.516c-0.397-0.128-0.763-0.235-1.095-0.321c-0.333-0.086-0.639-0.145-0.917-0.178
				c-0.279-0.032-0.568-0.047-0.869-0.047c-0.751,0-1.426,0.128-2.027,0.381c-0.6,0.255-1.121,0.617-1.56,1.085
				c-0.441,0.467-0.778,1.02-1.014,1.656c-0.236,0.639-0.354,1.351-0.354,2.137c0,1.551,0.456,2.784,1.368,3.698
				c0.911,0.914,2.161,1.371,3.749,1.371c0.643,0,1.281-0.076,1.914-0.226c0.632-0.149,1.464-0.408,2.493-0.772l1.19,2.383
				C176.901,25.019,175.91,25.348,174.848,25.567z" shape-rendering="geometric-precision"/>
			<path d="M195.218,21.183c-0.396,0.954-0.946,1.786-1.653,2.493c-0.707,0.709-1.542,1.26-2.505,1.658
				c-0.964,0.396-2.001,0.596-3.114,0.596s-2.152-0.199-3.116-0.596c-0.962-0.398-1.797-0.949-2.504-1.658
				c-0.707-0.707-1.264-1.539-1.67-2.493c-0.407-0.955-0.609-1.99-0.609-3.106c0-1.114,0.202-2.155,0.609-3.12
				c0.406-0.966,0.963-1.803,1.67-2.51c0.707-0.709,1.542-1.26,2.504-1.658c0.964-0.396,2.003-0.595,3.116-0.595
				s2.15,0.198,3.114,0.595c0.963,0.398,1.798,0.949,2.505,1.658c0.707,0.708,1.258,1.544,1.653,2.51
				c0.396,0.964,0.595,2.006,0.595,3.12C195.813,19.193,195.614,20.229,195.218,21.183z M192.465,15.961
				c-0.259-0.652-0.608-1.216-1.05-1.695c-0.44-0.477-0.958-0.852-1.55-1.125c-0.591-0.27-1.231-0.406-1.92-0.406
				c-0.689,0-1.335,0.136-1.938,0.406c-0.602,0.272-1.124,0.647-1.565,1.125c-0.442,0.479-0.79,1.043-1.05,1.695
				c-0.258,0.65-0.387,1.356-0.387,2.115c0,0.761,0.129,1.466,0.387,2.118c0.26,0.652,0.607,1.212,1.05,1.677
				c0.441,0.467,0.964,0.837,1.565,1.107c0.603,0.272,1.248,0.408,1.938,0.408c0.688,0,1.329-0.136,1.92-0.408
				c0.592-0.271,1.109-0.64,1.55-1.107c0.441-0.465,0.791-1.025,1.05-1.677c0.258-0.652,0.388-1.357,0.388-2.118
				C192.853,17.317,192.723,16.611,192.465,15.961z" shape-rendering="geometric-precision"/>
			<path d="M218.24,25.543v-8.528c0-0.6-0.048-1.163-0.145-1.688c-0.098-0.526-0.258-0.976-0.483-1.353
				c-0.226-0.375-0.525-0.668-0.9-0.884c-0.375-0.215-0.853-0.322-1.433-0.322c-0.814,0-1.522,0.129-2.123,0.386
				c-0.601,0.257-1.158,0.611-1.674,1.062c0.021,0.107,0.07,0.359,0.146,0.756c0.075,0.398,0.112,0.788,0.112,1.174v9.396h-2.863
				v-8.538c0-1.519-0.248-2.611-0.74-3.274c-0.494-0.662-1.244-0.995-2.252-0.995c-0.858,0-1.54,0.097-2.044,0.289
				c-0.505,0.193-0.992,0.438-1.465,0.738v11.78h-2.863V9.937l2.188,1.219c0.536-0.255,1.143-0.48,1.817-0.673
				c0.676-0.193,1.464-0.289,2.366-0.289c1.222,0,2.16,0.171,2.815,0.514c0.653,0.344,1.164,0.73,1.527,1.159
				c0.772-0.472,1.572-0.869,2.397-1.191c0.825-0.321,1.84-0.482,3.041-0.482c1.867,0,3.24,0.557,4.119,1.67
				c0.88,1.112,1.319,2.591,1.319,4.432v9.248H218.24z" shape-rendering="geometric-precision"/>
		</g>
		<circle fill="#FF6600" cx="159.814" cy="24.926" r="2.919"/>
	</g>
	<path fill="#FF6600" d="M28.554,34.989c-9.881,0-19.195-2.403-27.415-6.636c7.167,6.73,16.806,10.861,27.415,10.861
		s20.248-4.131,27.415-10.861C47.75,32.586,38.435,34.989,28.554,34.989z" shape-rendering="geometric-precision"/>
</g>
</svg>
