<?xml version="1.0" encoding="utf-8"?>
<!-- Generator: Adobe Illustrator 21.0.2, SVG Export Plug-In . SVG Version: 6.00 Build 0)  -->
<svg version="1.1" id="Layer_1" xmlns="http://www.w3.org/2000/svg" xmlns:xlink="http://www.w3.org/1999/xlink" x="0px" y="0px"
	 viewBox="0 0 38.9 30.5" style="enable-background:new 0 0 38.9 30.5;" xml:space="preserve">
<style type="text/css">
	.st0{fill-rule:evenodd;clip-rule:evenodd;fill:#28AAE1;}
</style>
<path class="st0" d="M34.3,27.2c-0.7,0-1.3-0.6-1.3-1.3c0-0.7,0.6-1.3,1.3-1.3c0.7,0,1.3,0.6,1.3,1.3C35.6,26.6,35,27.2,34.3,27.2z
	 M34.3,23.4c-1.3,0-2.4,1.1-2.4,2.4s1.1,2.4,2.4,2.4c1.3,0,2.4-1.1,2.4-2.4S35.6,23.4,34.3,23.4z M34.3,29.4c-1.9,0-3.5-1.6-3.5-3.5
	s1.6-3.5,3.5-3.5c1.9,0,3.5,1.6,3.5,3.5S36.2,29.4,34.3,29.4z M34.3,21.2c-2.5,0-4.6,2.1-4.6,4.6s2.1,4.6,4.6,4.6s4.6-2.1,4.6-4.6
	S36.8,21.2,34.3,21.2z M13.1,21c-0.3,0-0.5,0.3-0.5,0.5v1.6c0,0.3,0.2,0.5,0.5,0.5c0.3,0,0.6-0.2,0.6-0.5v-1.6
	C13.6,21.2,13.4,21,13.1,21z M15.3,21c-0.3,0-0.6,0.3-0.6,0.5v1.6c0,0.3,0.3,0.5,0.6,0.5s0.5-0.2,0.5-0.5v-1.6
	C15.8,21.2,15.6,21,15.3,21z M17.4,21c-0.3,0-0.6,0.3-0.6,0.5v1.6c0,0.3,0.3,0.5,0.6,0.5c0.3,0,0.5-0.2,0.5-0.5v-1.6
	C18,21.2,17.7,21,17.4,21z M25.7,28h-5.3l-2.5-2.5c-0.1-0.1-0.2-0.2-0.4-0.2H8c0.2-1.5,0.9-2.8,2-3.8c0.1-0.1,0.2-0.3,0.2-0.4v-1.8
	h10.5v2.6c0,0.1,0.1,0.3,0.2,0.4l3.8,3.8c0.1,0.1,0.2,0.2,0.4,0.2H27L25.7,28z M12.4,26.4h2.4c-0.2,0.5-0.7,0.8-1.2,0.8
	S12.6,26.9,12.4,26.4z M13.6,29.4c-1.8,0-3.2-1.3-3.5-3h1.1c0.3,1.1,1.2,1.9,2.4,1.9s2.1-0.8,2.4-1.9h1.1
	C16.9,28.1,15.4,29.4,13.6,29.4z M10.2,17.7c0-0.8,0.7-1.5,1.5-1.5h7.4c0.8,0,1.5,0.7,1.5,1.5v0.5H10.2V17.7z M33.3,11.4h0.7V14
	h-0.7c-0.7,0-1.3-0.6-1.3-1.3C31.9,11.9,32.5,11.4,33.3,11.4z M33.5,19.1c-1.2,0.1-2.4,0.6-3.3,1.3v-7.1h0.6
	c0.1,0.6,0.5,1.2,1.1,1.5C32.5,16.1,33.1,17.8,33.5,19.1z M34.3,20.1c0.2,0,0.3-0.1,0.4-0.2c0.1-0.1,0.1-0.3,0.1-0.5
	c-0.3-1.1-1-2.8-1.5-4.3h1.2c0.3,0,0.5-0.3,0.5-0.5v-3.8c0-0.3-0.2-0.6-0.5-0.6h-1.2c-1.2,0-2.1,0.8-2.4,1.9h-0.6v-0.5
	c0-1.4-1.2-2.6-2.6-2.6h-2.2c-0.3,0-0.5,0.2-0.5,0.5c0,0.3,0.2,0.6,0.5,0.6h2.2c0.8,0,1.5,0.7,1.5,1.5v9.7c-0.9,1-1.5,2.3-1.6,3.8
	h-2.3l-3.5-3.5v-4c0-1.4-1.2-2.6-2.6-2.6h-7.4c-1.4,0-2.6,1.2-2.6,2.6v3.1c-1.4,1.3-2.2,3.1-2.2,5c0,0.3,0.2,0.5,0.5,0.5h1.7
	c0.3,2.3,2.2,4.1,4.6,4.1c2.1,0,3.8-1.4,4.4-3.3l1.7,1.7c0.1,0.1,0.2,0.2,0.4,0.2H26c0.2,0,0.3-0.1,0.4-0.2l2.1-2.8
	c0-0.1,0.1-0.1,0.1-0.2h0C28.6,22.7,31.1,20.1,34.3,20.1z M17.3,9.3c0,1.7-0.6,3.3-1.6,4.6c0.6,0.1,1.1,0.2,1.6,0.4
	c1-1.4,1.6-3.1,1.6-5c0-5-4.3-9.3-9.5-9.3S0,4.3,0,9.3c0,4.5,3.2,8.4,7.7,9.1c-0.2-0.4-0.3-0.7-0.3-1.1c0-0.1,0-0.2,0-0.2
	c-3.5-0.9-5.9-4.4-5.9-7.8c0-4,3.3-8,7.8-8C14,1.3,17.3,5.3,17.3,9.3z M7.9,3.3v5v2h2h3v-2h-3v-5H7.9z"/>
</svg>
